<?xml version="1.0" standalone="no"?>
<!DOCTYPE svg PUBLIC "-//W3C//DTD SVG 20010904//EN"
 "http://www.w3.org/TR/2001/REC-SVG-20010904/DTD/svg10.dtd">
<svg version="1.0" xmlns="http://www.w3.org/2000/svg"
 width="837.000000pt" height="804.000000pt" viewBox="0 0 837.000000 804.000000"
 preserveAspectRatio="xMidYMid meet">
<metadata>
Created by potrace 1.16, written by Peter Selinger 2001-2019
</metadata>
<g transform="translate(0.000000,804.000000) scale(0.100000,-0.100000)"
fill="#000000" stroke="none">
<path d="M3960 7304 c-700 -60 -1309 -300 -1835 -723 -426 -342 -757 -779
-970 -1276 -119 -279 -195 -559 -241 -886 -25 -177 -25 -653 -1 -828 106 -746
411 -1376 914 -1892 l84 -86 -10 -252 c-6 -139 -13 -256 -16 -261 -3 -4 -21
-11 -40 -14 -20 -4 -33 -11 -30 -16 3 -5 -7 -12 -22 -16 -156 -38 -226 -169
-178 -332 17 -56 28 -63 47 -32 7 11 17 20 22 20 4 0 -3 -15 -17 -33 l-25 -34
39 -62 c78 -124 224 -247 374 -316 102 -48 128 -51 151 -23 11 13 26 28 34 33
8 5 2 -6 -14 -25 l-29 -35 39 -8 c73 -16 188 -3 246 27 59 31 454 176 648 238
138 44 357 128 435 166 28 14 88 38 135 54 l85 29 160 -12 c174 -13 512 -7
630 11 39 6 149 11 245 11 145 0 209 -5 372 -30 l197 -30 228 -112 c235 -115
468 -210 506 -207 12 1 38 -4 58 -11 56 -18 142 -8 187 22 124 82 165 297 101
535 -6 23 -14 42 -18 42 -3 0 -35 -36 -70 -80 -36 -44 -66 -78 -69 -76 -2 3
28 44 66 92 l70 87 -13 38 -14 39 99 0 c133 0 130 -4 130 164 0 92 4 136 12
144 10 10 10 15 -1 21 -12 8 -12 42 -1 227 l12 218 82 101 c398 487 630 1026
723 1676 24 175 24 651 -1 828 -22 159 -49 298 -86 436 -258 976 -963 1792
-1895 2190 -277 118 -562 196 -880 240 -105 15 -552 28 -655 19z m-406 -1281
c10 -26 -13 -81 -37 -89 -12 -4 -57 -27 -99 -51 -56 -33 -90 -46 -125 -48 -53
-4 -64 -17 -38 -45 16 -18 16 -20 -7 -43 -14 -14 -51 -32 -84 -42 -32 -9 -89
-32 -126 -51 -38 -18 -68 -30 -68 -25 0 5 11 39 25 75 14 37 25 77 25 91 0 43
-19 36 -37 -14 -13 -37 -20 -47 -29 -40 -8 7 -24 5 -49 -6 -47 -19 -48 -19
-40 5 5 15 -22 0 -97 -51 -96 -66 -208 -163 -208 -181 0 -4 11 -8 25 -8 34 0
31 -16 -13 -69 -59 -73 -69 -88 -34 -57 23 22 35 27 43 19 8 -8 -8 -30 -58
-81 -38 -39 -66 -69 -61 -66 22 14 17 -38 -17 -168 -21 -82 -37 -170 -38 -209
-1 -37 -5 -65 -9 -62 -4 2 -20 24 -34 49 l-27 45 -16 -24 c-9 -14 -35 -48 -58
-77 -38 -46 -51 -70 -39 -70 2 0 13 14 24 31 l20 32 12 -24 c18 -33 15 -118
-9 -229 -11 -52 -21 -122 -21 -155 l0 -60 21 35 c20 33 22 33 36 15 15 -21 13
-61 -8 -137 -14 -54 -33 -49 -27 7 l6 45 -34 -6 c-29 -5 -34 -3 -35 12 0 11
-4 65 -8 122 -8 103 -22 142 -41 112 -23 -36 -7 -127 51 -300 16 -48 29 -101
29 -116 l-1 -29 -36 39 c-20 22 -33 32 -30 22 4 -10 7 -22 7 -27 0 -6 4 -8 9
-4 20 12 30 -33 24 -103 -3 -40 -8 -72 -10 -72 -2 0 -18 7 -35 16 l-31 16 7
-52 c4 -29 13 -59 21 -66 14 -15 43 -128 80 -317 13 -68 31 -127 40 -137 9
-10 23 -38 31 -62 l14 -43 -5 73 c-3 39 -1 72 3 72 11 0 42 -144 42 -195 0
-45 18 -167 26 -175 3 -3 12 3 19 13 12 17 15 15 34 -28 25 -57 26 -65 6 -65
-19 0 -19 -9 0 -34 8 -11 15 -29 15 -40 0 -19 26 -56 41 -56 4 0 5 10 2 23 -8
32 4 18 48 -58 21 -37 39 -78 39 -92 0 -45 38 -98 114 -161 42 -34 76 -68 76
-74 0 -6 30 -40 68 -75 l67 -64 -65 5 c-36 3 -93 8 -126 12 l-61 7 -36 -63
-35 -63 -102 99 c-187 181 -309 349 -431 589 -157 311 -229 618 -229 977 0
578 218 1109 625 1524 114 116 276 246 396 318 78 48 82 49 95 31 11 -15 14
-15 14 -4 0 26 46 60 115 85 37 13 65 21 63 17 -1 -5 -15 -33 -30 -63 -51
-106 -46 -111 36 -30 45 44 76 83 76 95 0 42 12 62 44 73 19 7 41 10 50 6 14
-5 11 -12 -18 -44 -54 -60 -67 -93 -18 -46 29 27 47 37 61 33 11 -3 28 1 38 9
14 10 15 13 3 14 -22 0 3 21 74 64 67 40 81 43 90 19z m704 -333 c302 -228
520 -550 612 -905 38 -147 50 -242 50 -390 0 -271 -56 -524 -170 -762 -27 -57
-47 -103 -45 -103 2 0 21 15 43 34 117 97 217 259 250 404 l18 77 48 -61 c62
-78 149 -229 186 -325 107 -279 90 -612 -45 -879 -73 -144 -246 -345 -378
-438 l-47 -33 0 88 c0 48 -7 120 -15 158 -17 82 -79 214 -127 269 l-34 39 4
-34 c5 -43 -21 -154 -50 -215 -20 -44 -131 -174 -148 -174 -4 0 1 33 12 73 25
95 26 241 2 344 -11 49 -48 137 -100 243 -123 250 -139 314 -132 530 l4 140
-25 -16 c-247 -157 -430 -409 -508 -701 -24 -88 -26 -115 -26 -273 0 -186 10
-257 58 -393 13 -39 23 -72 22 -74 -6 -5 -113 71 -187 132 -264 220 -426 479
-470 758 -17 103 -7 297 19 400 44 166 136 354 248 504 36 48 161 185 277 303
246 249 357 379 467 544 133 198 179 312 179 442 0 103 -45 249 -106 346 l-25
39 30 -15 c16 -9 65 -43 109 -76z m-1588 -650 c9 -16 4 -25 -32 -59 -33 -31
-39 -41 -25 -41 22 0 65 43 90 89 10 19 20 32 22 29 12 -11 -29 -95 -88 -186
-36 -53 -82 -130 -103 -169 -22 -40 -42 -73 -46 -73 -5 0 -8 58 -8 128 l0 129
52 47 c34 31 54 43 59 35 8 -14 24 12 34 59 7 36 29 42 45 12z m3336 -2971 c4
-6 -28 -45 -72 -90 l-79 -79 -73 0 c-53 0 -74 4 -78 14 -3 8 16 49 43 90 l48
76 102 0 c63 0 104 -4 109 -11z m-1247 -249 c96 -49 135 -138 135 -310 -1
-271 -107 -439 -278 -440 -110 0 -187 52 -226 156 -41 111 -22 343 39 463 72
140 208 194 330 131z m1136 6 c115 -49 169 -235 132 -450 -35 -197 -133 -306
-277 -306 -69 0 -125 25 -169 75 -52 59 -64 98 -68 220 -11 299 119 501 307
478 25 -3 59 -11 75 -17z m-3180 -66 c0 -41 -4 -164 -9 -272 l-9 -198 125 0
c97 0 128 -3 137 -14 12 -14 14 -165 4 -193 -7 -19 -459 -19 -465 0 -7 21 28
733 37 747 4 7 40 10 93 8 l87 -3 0 -75z m1026 57 c62 -33 91 -87 91 -175 1
-113 2 -112 -103 -112 l-89 0 0 64 c0 52 -3 65 -17 71 -26 9 -78 -53 -98 -117
-22 -73 -32 -238 -15 -277 16 -40 45 -48 78 -24 37 27 41 46 8 37 -19 -4 -28
-2 -32 11 -7 17 10 162 19 172 3 2 38 9 79 15 60 9 79 8 111 -5 59 -25 73 -95
41 -206 -35 -125 -114 -191 -238 -199 -118 -7 -182 24 -229 113 -17 32 -22 62
-25 157 -7 194 34 326 127 417 84 81 203 105 292 58z m351 6 c2 -10 1 -74 -3
-143 -4 -69 -10 -185 -13 -257 l-7 -133 123 0 c68 0 129 -4 136 -8 9 -6 12
-35 10 -108 l-3 -99 -230 0 -230 0 1 95 c2 134 25 642 29 658 3 8 31 12 94 12
76 0 89 -2 93 -17z m1386 -50 c4 -94 -4 -103 -93 -103 l-74 0 -5 -42 c-5 -39
-9 -127 -19 -448 l-3 -105 -94 0 -95 0 3 240 c2 132 5 260 8 284 l5 44 -58 -8
c-32 -4 -71 -8 -88 -9 l-30 -1 -1 90 c-1 140 -33 126 275 123 l266 -3 3 -62z
m842 40 c20 -19 44 -64 74 -143 50 -131 51 -130 61 45 4 61 10 114 14 118 4 4
43 7 87 5 l79 -3 -1 -55 c-2 -173 -18 -410 -28 -410 -7 0 -6 -4 2 -8 9 -7 12
-43 10 -148 l-3 -139 -94 0 -94 0 -73 195 -73 195 -2 -145 c-1 -80 -3 -154 -4
-165 -1 -11 -2 -35 -3 -52 l-2 -33 -95 0 c-69 0 -95 3 -96 13 -6 71 34 703 47
745 2 8 28 12 84 12 73 0 82 -2 110 -27z m-3859 5 c1 -27 -3 -153 -5 -156 -2
-1 -72 -9 -157 -18 -84 -8 -154 -16 -155 -17 -1 -1 -4 -19 -7 -39 l-6 -38 124
0 c89 0 124 -3 127 -12 11 -32 9 -125 -4 -135 -7 -6 -64 -16 -126 -24 -105
-12 -115 -15 -123 -37 -5 -13 -9 -32 -9 -42 0 -18 10 -20 158 -22 l157 -3 3
-79 c2 -44 -2 -84 -7 -89 -11 -11 -479 -39 -494 -30 -17 11 8 679 28 741 6 18
495 18 496 0z"/>
<path d="M4622 1665 c-11 -14 -28 -58 -37 -97 -20 -87 -24 -264 -6 -295 14
-28 51 -30 74 -5 24 26 45 119 52 225 10 161 -29 241 -83 172z"/>
<path d="M5760 1658 c-29 -49 -50 -156 -50 -262 0 -107 12 -146 45 -146 33 0
51 27 74 107 23 84 25 271 3 311 -18 32 -49 28 -72 -10z"/>
</g>
</svg>
